<?xml version="1.0" encoding="UTF-8"?>
<svg version="1.1" xmlns="http://www.w3.org/2000/svg" width="32" height="32">
<path d="M0 0 C10.56 0 21.12 0 32 0 C32 10.56 32 21.12 32 32 C21.44 32 10.88 32 0 32 C0 21.44 0 10.88 0 0 Z " fill="#1E253C" transform="translate(0,0)"/>
<path d="M0 0 C3.17117117 15.65765766 3.17117117 15.65765766 1 20 C0.01 20 -0.98 20 -2 20 C-2.99 22.475 -2.99 22.475 -4 25 C-4.99 25 -5.98 25 -7 25 C-7.20625 24.195625 -7.4125 23.39125 -7.625 22.5625 C-8.07875 21.716875 -8.5325 20.87125 -9 20 C-12.05272465 19.10169161 -12.05272465 19.10169161 -15 19 C-17.10232344 21.8684413 -17.10232344 21.8684413 -18 25 C-18.66 25 -19.32 25 -20 25 C-19.938125 24.236875 -19.87625 23.47375 -19.8125 22.6875 C-19.74101915 19.95474688 -19.74101915 19.95474688 -21.5 18.1875 C-21.995 17.795625 -22.49 17.40375 -23 17 C-19.535 16.505 -19.535 16.505 -16 16 C-16 15.34 -16 14.68 -16 14 C-15.34 14 -14.68 14 -14 14 C-14 12.68 -14 11.36 -14 10 C-13.34 10 -12.68 10 -12 10 C-12 10.99 -12 11.98 -12 13 C-10.68 12.67 -9.36 12.34 -8 12 C-7.67 13.65 -7.34 15.3 -7 17 C-7 16.01 -7 15.02 -7 14 C-6.34 14 -5.68 14 -5 14 C-4.67 12.02 -4.34 10.04 -4 8 C-4.99 8.495 -4.99 8.495 -6 9 C-6 7.68 -6 6.36 -6 5 C-6.99 5 -7.98 5 -9 5 C-9.33 6.32 -9.66 7.64 -10 9 C-10.33 8.01 -10.66 7.02 -11 6 C-12.32 6 -13.64 6 -15 6 C-15.33 6.99 -15.66 7.98 -16 9 C-16.33 7.68 -16.66 6.36 -17 5 C-17.99 5 -18.98 5 -20 5 C-20.33 6.32 -20.66 7.64 -21 9 C-21.33 9 -21.66 9 -22 9 C-21.67 10.98 -21.34 12.96 -21 15 C-22.98 15.99 -22.98 15.99 -25 17 C-24.67 17.99 -24.34 18.98 -24 20 C-24.99 20 -25.98 20 -27 20 C-27.33 17.03 -27.66 14.06 -28 11 C-27.34 11 -26.68 11 -26 11 C-25.87625 10.030625 -25.7525 9.06125 -25.625 8.0625 C-25.41875 7.051875 -25.2125 6.04125 -25 5 C-22.76352369 3.88176185 -21.35108471 3.80603939 -18.8671875 3.68359375 C-18.06152344 3.64169922 -17.25585938 3.59980469 -16.42578125 3.55664062 C-15.58402344 3.51732422 -14.74226562 3.47800781 -13.875 3.4375 C-12.60076172 3.37272461 -12.60076172 3.37272461 -11.30078125 3.30664062 C-9.20071777 3.20045764 -7.10038052 3.09971503 -5 3 C-5.33 2.34 -5.66 1.68 -6 1 C-4 0 -4 0 0 0 Z " fill="#54495E" transform="translate(29,4)"/>
<path d="M0 0 C0.99 0 1.98 0 3 0 C3.33 0.99 3.66 1.98 4 3 C4.33 2.34 4.66 1.68 5 1 C6.32 1 7.64 1 9 1 C9.33 1.66 9.66 2.32 10 3 C10.33 2.01 10.66 1.02 11 0 C11.99 0 12.98 0 14 0 C14.33 0.99 14.66 1.98 15 3 C15.66 2.34 16.32 1.68 17 1 C16.67 2.65 16.34 4.3 16 6 C16.99 6.33 17.98 6.66 19 7 C17.68 7 16.36 7 15 7 C13.66666667 10 13.66666667 10 15 13 C13.68 12.34 12.36 11.68 11 11 C11 10.01 11 9.02 11 8 C10.01 8 9.02 8 8 8 C8 7.01 8 6.02 8 5 C7.34 5 6.68 5 6 5 C6 6.32 6 7.64 6 9 C5.34 9 4.68 9 4 9 C4 9.66 4 10.32 4 11 C2.35 11.66 0.7 12.32 -1 13 C-0.01 14.485 -0.01 14.485 1 16 C0.625 18.1875 0.625 18.1875 0 20 C0.66 20 1.32 20 2 20 C1.9071875 18.824375 1.9071875 18.824375 1.8125 17.625 C1.874375 16.75875 1.93625 15.8925 2 15 C5 13 5 13 8.0625 13.1875 C11 14 11 14 13 17 C13 18.32 13 19.64 13 21 C8.05 21 3.1 21 -2 21 C-5 13.375 -5 13.375 -5 10 C-3.68 10 -2.36 10 -1 10 C-1 9.01 -1 8.02 -1 7 C-2.32 6.67 -3.64 6.34 -5 6 C-4.01 6 -3.02 6 -2 6 C-2.33 4.35 -2.66 2.7 -3 1 C-2.34 1.66 -1.68 2.32 -1 3 C-0.67 2.01 -0.34 1.02 0 0 Z " fill="#30354C" transform="translate(9,9)"/>
<path d="M0 0 C0.33 0 0.66 0 1 0 C1.33 3.63 1.66 7.26 2 11 C2.99 11 3.98 11 5 11 C7 14 7 14 7 17 C7.928125 16.7525 7.928125 16.7525 8.875 16.5 C11.7677093 16.03716651 14.09529374 16.09392623 17 16.25 C21.06713754 16.32251954 21.67240937 16.27880054 24.9375 13.5 C25.9584375 12.2625 25.9584375 12.2625 27 11 C27.99 11 28.98 11 30 11 C30.33 8.36 30.66 5.72 31 3 C31.33 3 31.66 3 32 3 C32 8.28 32 13.56 32 19 C21.44 19 10.88 19 0 19 C0 12.73 0 6.46 0 0 Z " fill="#192139" transform="translate(0,13)"/>
<path d="M0 0 C0.99 0.99 1.98 1.98 3 3 C2.34 4.32 1.68 5.64 1 7 C0.01 7 -0.98 7 -2 7 C-1.484375 7.4125 -0.96875 7.825 -0.4375 8.25 C0.036875 8.8275 0.51125 9.405 1 10 C0.6875 12.1875 0.6875 12.1875 0 14 C0.66 14 1.32 14 2 14 C1.9071875 12.824375 1.9071875 12.824375 1.8125 11.625 C1.874375 10.75875 1.93625 9.8925 2 9 C5 7 5 7 8.0625 7.1875 C11 8 11 8 13 11 C13 12.32 13 13.64 13 15 C8.05 15 3.1 15 -2 15 C-5 7.375 -5 7.375 -5 4 C-3.68 4 -2.36 4 -1 4 C-0.67 2.68 -0.34 1.36 0 0 Z " fill="#413247" transform="translate(9,15)"/>
<path d="M0 0 C0.85078125 0.00322266 1.7015625 0.00644531 2.578125 0.00976562 C3.46757812 0.01814453 4.35703125 0.02652344 5.2734375 0.03515625 C6.170625 0.03966797 7.0678125 0.04417969 7.9921875 0.04882812 C10.21100398 0.06063034 12.42968768 0.0770947 14.6484375 0.09765625 C14.3184375 1.74765625 13.9884375 3.39765625 13.6484375 5.09765625 C13.3184375 3.77765625 12.9884375 2.45765625 12.6484375 1.09765625 C11.6584375 1.09765625 10.6684375 1.09765625 9.6484375 1.09765625 C9.3184375 2.41765625 8.9884375 3.73765625 8.6484375 5.09765625 C8.3184375 4.10765625 7.9884375 3.11765625 7.6484375 2.09765625 C6.3284375 2.09765625 5.0084375 2.09765625 3.6484375 2.09765625 C3.3184375 3.08765625 2.9884375 4.07765625 2.6484375 5.09765625 C2.3184375 3.77765625 1.9884375 2.45765625 1.6484375 1.09765625 C0.6584375 1.09765625 -0.3315625 1.09765625 -1.3515625 1.09765625 C-1.6815625 2.41765625 -2.0115625 3.73765625 -2.3515625 5.09765625 C-2.6815625 5.09765625 -3.0115625 5.09765625 -3.3515625 5.09765625 C-3.0215625 7.07765625 -2.6915625 9.05765625 -2.3515625 11.09765625 C-4.3315625 12.08765625 -4.3315625 12.08765625 -6.3515625 13.09765625 C-6.0215625 14.08765625 -5.6915625 15.07765625 -5.3515625 16.09765625 C-6.3415625 16.09765625 -7.3315625 16.09765625 -8.3515625 16.09765625 C-8.6815625 13.12765625 -9.0115625 10.15765625 -9.3515625 7.09765625 C-8.6915625 7.09765625 -8.0315625 7.09765625 -7.3515625 7.09765625 C-7.2278125 6.12828125 -7.1040625 5.15890625 -6.9765625 4.16015625 C-6.7703125 3.14953125 -6.5640625 2.13890625 -6.3515625 1.09765625 C-4.00303722 -0.07660639 -2.61382185 -0.01742548 0 0 Z " fill="#5D6478" transform="translate(10.3515625,7.90234375)"/>
<path d="M0 0 C0.66 0 1.32 0 2 0 C2 0.99 2 1.98 2 3 C3.32 2.67 4.64 2.34 6 2 C5.938125 2.9075 5.87625 3.815 5.8125 4.75 C6.01672076 8.28982642 6.64551835 9.44931155 9 12 C9.99 11.34 10.98 10.68 12 10 C11.34 11.65 10.68 13.3 10 15 C9.01 15 8.02 15 7 15 C6.79375 14.195625 6.5875 13.39125 6.375 12.5625 C5.92125 11.716875 5.4675 10.87125 5 10 C1.94727535 9.10169161 1.94727535 9.10169161 -1 9 C-3.10232344 11.8684413 -3.10232344 11.8684413 -4 15 C-4.66 15 -5.32 15 -6 15 C-5.938125 14.236875 -5.87625 13.47375 -5.8125 12.6875 C-5.74101915 9.95474688 -5.74101915 9.95474688 -7.5 8.1875 C-7.995 7.795625 -8.49 7.40375 -9 7 C-5.535 6.505 -5.535 6.505 -2 6 C-2 5.34 -2 4.68 -2 4 C-1.34 4 -0.68 4 0 4 C0 2.68 0 1.36 0 0 Z " fill="#6E4B62" transform="translate(15,14)"/>
<path d="M0 0 C4.10768565 0.64858194 6.34510731 1.97289125 9.5625 4.5625 C9.5625 4.8925 9.5625 5.2225 9.5625 5.5625 C3.6225 5.5625 -2.3175 5.5625 -8.4375 5.5625 C-3.4375 0.5625 -3.4375 0.5625 0 0 Z " fill="#E52947" transform="translate(15.4375,2.4375)"/>
<path d="M0 0 C5.94 0 11.88 0 18 0 C17.67 1.65 17.34 3.3 17 5 C16.67 3.68 16.34 2.36 16 1 C15.01 1 14.02 1 13 1 C12.67 2.32 12.34 3.64 12 5 C11.67 4.01 11.34 3.02 11 2 C9.68 2 8.36 2 7 2 C6.67 2.99 6.34 3.98 6 5 C5.67 3.68 5.34 2.36 5 1 C4.01 1 3.02 1 2 1 C1.67 2.32 1.34 3.64 1 5 C0.67 3.35 0.34 1.7 0 0 Z " fill="#D6D9DE" transform="translate(7,8)"/>
<path d="M0 0 C0.99 0 1.98 0 3 0 C3.33 0.99 3.66 1.98 4 3 C4.66 2.34 5.32 1.68 6 1 C5.67 2.65 5.34 4.3 5 6 C5.99 6.33 6.98 6.66 8 7 C6.68 7 5.36 7 4 7 C2.66666667 10 2.66666667 10 4 13 C2.68 12.34 1.36 11.68 0 11 C0 7.37 0 3.74 0 0 Z " fill="#33364B" transform="translate(20,9)"/>
<path d="M0 0 C0.99 0.99 1.98 1.98 3 3 C2.34 4.32 1.68 5.64 1 7 C0.01 7 -0.98 7 -2 7 C-1.67 7.99 -1.34 8.98 -1 10 C-4 9 -4 9 -5.1875 6.9375 C-5.455625 6.298125 -5.72375 5.65875 -6 5 C-4.35 4.67 -2.7 4.34 -1 4 C-0.67 2.68 -0.34 1.36 0 0 Z " fill="#432D42" transform="translate(9,15)"/>
<path d="M0 0 C0.99 0.33 1.98 0.66 3 1 C2.67 2.32 2.34 3.64 2 5 C2.66 5 3.32 5 4 5 C4 5.66 4 6.32 4 7 C4.66 7.66 5.32 8.32 6 9 C5.34 9 4.68 9 4 9 C3.67 9.66 3.34 10.32 3 11 C2.4121875 10.01 2.4121875 10.01 1.8125 9 C0.14583333 6.70833333 0.14583333 6.70833333 -2.6875 6.75 C-3.8321875 6.87375 -3.8321875 6.87375 -5 7 C-4.01 6.67 -3.02 6.34 -2 6 C-2.33 4.35 -2.66 2.7 -3 1 C-2.34 1.66 -1.68 2.32 -1 3 C-0.67 2.01 -0.34 1.02 0 0 Z " fill="#42485E" transform="translate(9,9)"/>
<path d="M0 0 C2.31 0 4.62 0 7 0 C5.71937515 1.7074998 4.38232443 3.37373596 3 5 C2.34 5 1.68 5 1 5 C0.67 6.98 0.34 8.96 0 11 C-0.33 11 -0.66 11 -1 11 C-1.125 3.375 -1.125 3.375 0 0 Z " fill="#3B4256" transform="translate(3,4)"/>
<path d="M0 0 C1.28317892 3.84953676 1.06643637 6.94738135 1 11 C0.34 10.34 -0.32 9.68 -1 9 C-1 7.68 -1 6.36 -1 5 C-1.9590625 4.566875 -1.9590625 4.566875 -2.9375 4.125 C-5 3 -5 3 -6 1 C-4 0 -4 0 0 0 Z " fill="#3B4156" transform="translate(29,4)"/>
<path d="M0 0 C0.66 0 1.32 0 2 0 C2 0.99 2 1.98 2 3 C3.32 2.67 4.64 2.34 6 2 C5.67 3.32 5.34 4.64 5 6 C2.69 6 0.38 6 -2 6 C-2 5.34 -2 4.68 -2 4 C-1.34 4 -0.68 4 0 4 C0 2.68 0 1.36 0 0 Z " fill="#8F9EB4" transform="translate(15,14)"/>
<path d="M0 0 C0.99 0.33 1.98 0.66 3 1 C3.33 2.98 3.66 4.96 4 7 C4.66 7 5.32 7 6 7 C5.67 8.65 5.34 10.3 5 12 C4.731875 11.360625 4.46375 10.72125 4.1875 10.0625 C3.11332248 7.66868314 3.11332248 7.66868314 0 7 C0 4.69 0 2.38 0 0 Z " fill="#6A7284" transform="translate(25,8)"/>
<path d="M0 0 C0.66 0.66 1.32 1.32 2 2 C-2.0527516 2.98248524 -5.83861737 3.08159574 -10 3 C-7.30045271 -0.81112559 -4.38454651 -0.39859514 0 0 Z " fill="#D51434" transform="translate(19,3)"/>
<path d="M0 0 C2.875 0.3125 2.875 0.3125 6 1 C6.66 1.99 7.32 2.98 8 4 C7.67 4.99 7.34 5.98 7 7 C4.03 6.505 4.03 6.505 1 6 C2.32 5.67 3.64 5.34 5 5 C5 4.01 5 3.02 5 2 C3.02 2 1.04 2 -1 2 C-0.67 1.34 -0.34 0.68 0 0 Z " fill="#43142C" transform="translate(14,22)"/>
<path d="M0 0 C1.231394 2.46278801 1.07159196 4.2795055 1 7 C0.01 7.33 -0.98 7.66 -2 8 C-2.66 8.66 -3.32 9.32 -4 10 C-4.33 9.01 -4.66 8.02 -5 7 C-4.34 7 -3.68 7 -3 7 C-2.87625 6.030625 -2.7525 5.06125 -2.625 4.0625 C-2.41875 3.051875 -2.2125 2.04125 -2 1 C-1.34 0.67 -0.68 0.34 0 0 Z " fill="#6A7284" transform="translate(6,8)"/>
<path d="M0 0 C0.99 0 1.98 0 3 0 C3.66 1.65 4.32 3.3 5 5 C4.01 5.495 4.01 5.495 3 6 C2.01 5.34 1.02 4.68 0 4 C0 2.68 0 1.36 0 0 Z " fill="#2D354A" transform="translate(2,24)"/>
<path d="M0 0 C0 0.99 0 1.98 0 3 C-1.98 3 -3.96 3 -6 3 C-6 2.01 -6 1.02 -6 0 C-3.50907189 -1.24546405 -2.58919267 -0.7767578 0 0 Z " fill="#7D7986" transform="translate(19,24)"/>
<path d="M0 0 C0.99 0.33 1.98 0.66 3 1 C3 1.99 3 2.98 3 4 C1.02 4.99 1.02 4.99 -1 6 C-1 2 -1 2 0 0 Z " fill="#2D354A" transform="translate(27,24)"/>
</svg>
